<svg class="main-svg" xmlns="http://www.w3.org/2000/svg" xmlns:xlink="http://www.w3.org/1999/xlink" width="1000" height="1400" style="" viewBox="0 0 1000 1400"><rect x="0" y="0" width="1000" height="1400" style="fill: rgb(255, 255, 255); fill-opacity: 1;"/><defs id="defs-4e3fb1"><g class="clips"><clipPath id="clip4e3fb1xyplot" class="plotclip"><rect width="675" height="274.5"/></clipPath><clipPath id="clip4e3fb1x2y2plot" class="plotclip"><rect width="675" height="549.0000000000001"/></clipPath><clipPath id="clip4e3fb1x3y3plot" class="plotclip"><rect width="675" height="274.5"/></clipPath><clipPath class="axesclip" id="clip4e3fb1x"><rect x="80" y="0" width="675" height="1400"/></clipPath><clipPath class="axesclip" id="clip4e3fb1y"><rect x="0" y="100" width="1000" height="274.5"/></clipPath><clipPath class="axesclip" id="clip4e3fb1xy"><rect x="80" y="100" width="675" height="274.5"/></clipPath><clipPath class="axesclip" id="clip4e3fb1y2"><rect x="0" y="435.4999999999999" width="1000" height="549.0000000000001"/></clipPath><clipPath class="axesclip" id="clip4e3fb1xy2"><rect x="80" y="435.4999999999999" width="675" height="549.0000000000001"/></clipPath><clipPath class="axesclip" id="clip4e3fb1y3"><rect x="0" y="1045.5" width="1000" height="274.5"/></clipPath><clipPath class="axesclip" id="clip4e3fb1xy3"><rect x="80" y="1045.5" width="675" height="274.5"/></clipPath><clipPath class="axesclip" id="clip4e3fb1x2"><rect x="80" y="0" width="675" height="1400"/></clipPath><clipPath class="axesclip" id="clip4e3fb1x2y"><rect x="80" y="100" width="675" height="274.5"/></clipPath><clipPath class="axesclip" id="clip4e3fb1x2y2"><rect x="80" y="435.4999999999999" width="675" height="549.0000000000001"/></clipPath><clipPath class="axesclip" id="clip4e3fb1x2y3"><rect x="80" y="1045.5" width="675" height="274.5"/></clipPath><clipPath class="axesclip" id="clip4e3fb1x3"><rect x="80" y="0" width="675" height="1400"/></clipPath><clipPath class="axesclip" id="clip4e3fb1x3y"><rect x="80" y="100" width="675" height="274.5"/></clipPath><clipPath class="axesclip" id="clip4e3fb1x3y2"><rect x="80" y="435.4999999999999" width="675" height="549.0000000000001"/></clipPath><clipPath class="axesclip" id="clip4e3fb1x3y3"><rect x="80" y="1045.5" width="675" height="274.5"/></clipPath></g><g class="gradients"/></defs><g class="bglayer"><rect class="bg" x="80" y="100" width="675" height="274.5" style="fill: rgb(229, 236, 246); fill-opacity: 1; stroke-width: 0;"/><rect class="bg" x="80" y="435.4999999999999" width="675" height="549.0000000000001" style="fill: rgb(229, 236, 246); fill-opacity: 1; stroke-width: 0;"/><rect class="bg" x="80" y="1045.5" width="675" height="274.5" style="fill: rgb(229, 236, 246); fill-opacity: 1; stroke-width: 0;"/></g><g class="layer-below"><g class="imagelayer"/><g class="shapelayer"/></g><g class="cartesianlayer"><g class="subplot xy"><g class="layer-subplot"><g class="shapelayer"/><g class="imagelayer"/></g><g class="gridlayer"><g class="x"><path class="xgrid crisp" transform="translate(159.41,0)" d="M0,100v274.5" style="stroke: rgb(255, 255, 255); stroke-opacity: 1; stroke-width: 1px;"/><path class="xgrid crisp" transform="translate(238.82,0)" d="M0,100v274.5" style="stroke: rgb(255, 255, 255); stroke-opacity: 1; stroke-width: 1px;"/><path class="xgrid crisp" transform="translate(318.24,0)" d="M0,100v274.5" style="stroke: rgb(255, 255, 255); stroke-opacity: 1; stroke-width: 1px;"/><path class="xgrid crisp" transform="translate(397.65,0)" d="M0,100v274.5" style="stroke: rgb(255, 255, 255); stroke-opacity: 1; stroke-width: 1px;"/><path class="xgrid crisp" transform="translate(477.06,0)" d="M0,100v274.5" style="stroke: rgb(255, 255, 255); stroke-opacity: 1; stroke-width: 1px;"/><path class="xgrid crisp" transform="translate(556.47,0)" d="M0,100v274.5" style="stroke: rgb(255, 255, 255); stroke-opacity: 1; stroke-width: 1px;"/><path class="xgrid crisp" transform="translate(635.88,0)" d="M0,100v274.5" style="stroke: rgb(255, 255, 255); stroke-opacity: 1; stroke-width: 1px;"/><path class="xgrid crisp" transform="translate(715.29,0)" d="M0,100v274.5" style="stroke: rgb(255, 255, 255); stroke-opacity: 1; stroke-width: 1px;"/></g><g class="y"><path class="ygrid crisp" transform="translate(0,321.5)" d="M80,0h675" style="stroke: rgb(255, 255, 255); stroke-opacity: 1; stroke-width: 1px;"/><path class="ygrid crisp" transform="translate(0,268.49)" d="M80,0h675" style="stroke: rgb(255, 255, 255); stroke-opacity: 1; stroke-width: 1px;"/><path class="ygrid crisp" transform="translate(0,215.49)" d="M80,0h675" style="stroke: rgb(255, 255, 255); stroke-opacity: 1; stroke-width: 1px;"/><path class="ygrid crisp" transform="translate(0,162.49)" d="M80,0h675" style="stroke: rgb(255, 255, 255); stroke-opacity: 1; stroke-width: 1px;"/><path class="ygrid crisp" transform="translate(0,109.48)" d="M80,0h675" style="stroke: rgb(255, 255, 255); stroke-opacity: 1; stroke-width: 1px;"/></g></g><g class="zerolinelayer"><path class="yzl zl crisp" transform="translate(0,374.5)" d="M80,0h675" style="stroke: rgb(255, 255, 255); stroke-opacity: 1; stroke-width: 2px;"/></g><path class="xlines-below"/><path class="ylines-below"/><g class="overlines-below"/><g class="xaxislayer-below"/><g class="yaxislayer-below"/><g class="overaxes-below"/><g class="plot" transform="translate(80, 100)" clip-path="url('#clip4e3fb1xyplot')"><g class="barlayer mlayer"><g class="trace bars" shape-rendering="crispEdges" style="opacity: 1;"><g class="points"><g class="point"><path d="M0,274.5V13.73H39.71V274.5Z" style="vector-effect: non-scaling-stroke; opacity: 1; stroke-width: 0px; fill: rgb(0, 204, 150); fill-opacity: 1;"/></g><g class="point"><path d="M39.71,274.5V39.17H79.41V274.5Z" style="vector-effect: non-scaling-stroke; opacity: 1; stroke-width: 0px; fill: rgb(0, 204, 150); fill-opacity: 1;"/></g><g class="point"><path d="M79.41,274.5V152.59H119.12V274.5Z" style="vector-effect: non-scaling-stroke; opacity: 1; stroke-width: 0px; fill: rgb(0, 204, 150); fill-opacity: 1;"/></g><g class="point"><path d="M119.12,274.5V167.43H158.82V274.5Z" style="vector-effect: non-scaling-stroke; opacity: 1; stroke-width: 0px; fill: rgb(0, 204, 150); fill-opacity: 1;"/></g><g class="point"><path d="M158.82,274.5V196.06H198.53V274.5Z" style="vector-effect: non-scaling-stroke; opacity: 1; stroke-width: 0px; fill: rgb(0, 204, 150); fill-opacity: 1;"/></g><g class="point"><path d="M198.53,274.5V200.3H238.24V274.5Z" style="vector-effect: non-scaling-stroke; opacity: 1; stroke-width: 0px; fill: rgb(0, 204, 150); fill-opacity: 1;"/></g><g class="point"><path d="M238.24,274.5V220.44H277.94V274.5Z" style="vector-effect: non-scaling-stroke; opacity: 1; stroke-width: 0px; fill: rgb(0, 204, 150); fill-opacity: 1;"/></g><g class="point"><path d="M277.94,274.5V218.32H317.65V274.5Z" style="vector-effect: non-scaling-stroke; opacity: 1; stroke-width: 0px; fill: rgb(0, 204, 150); fill-opacity: 1;"/></g><g class="point"><path d="M317.65,274.5V211.96H357.35V274.5Z" style="vector-effect: non-scaling-stroke; opacity: 1; stroke-width: 0px; fill: rgb(0, 204, 150); fill-opacity: 1;"/></g><g class="point"><path d="M357.35,274.5V235.28H397.06V274.5Z" style="vector-effect: non-scaling-stroke; opacity: 1; stroke-width: 0px; fill: rgb(0, 204, 150); fill-opacity: 1;"/></g><g class="point"><path d="M397.06,274.5V244.82H436.76V274.5Z" style="vector-effect: non-scaling-stroke; opacity: 1; stroke-width: 0px; fill: rgb(0, 204, 150); fill-opacity: 1;"/></g><g class="point"><path d="M436.76,274.5V255.42H476.47V274.5Z" style="vector-effect: non-scaling-stroke; opacity: 1; stroke-width: 0px; fill: rgb(0, 204, 150); fill-opacity: 1;"/></g><g class="point"><path d="M476.47,274.5V264.96H516.18V274.5Z" style="vector-effect: non-scaling-stroke; opacity: 1; stroke-width: 0px; fill: rgb(0, 204, 150); fill-opacity: 1;"/></g><g class="point"><path d="M516.18,274.5V259.66H555.88V274.5Z" style="vector-effect: non-scaling-stroke; opacity: 1; stroke-width: 0px; fill: rgb(0, 204, 150); fill-opacity: 1;"/></g><g class="point"><path d="M555.88,274.5V264.96H595.59V274.5Z" style="vector-effect: non-scaling-stroke; opacity: 1; stroke-width: 0px; fill: rgb(0, 204, 150); fill-opacity: 1;"/></g><g class="point"><path d="M595.59,274.5V268.14H635.29V274.5Z" style="vector-effect: non-scaling-stroke; opacity: 1; stroke-width: 0px; fill: rgb(0, 204, 150); fill-opacity: 1;"/></g><g class="point"><path d="M635.29,274.5V270.26H675V274.5Z" style="vector-effect: non-scaling-stroke; opacity: 1; stroke-width: 0px; fill: rgb(0, 204, 150); fill-opacity: 1;"/></g></g></g></g></g><g class="overplot"/><path class="xlines-above crisp" d="M79,375H755" style="fill: none; stroke-width: 1px; stroke: rgb(255, 255, 255); stroke-opacity: 1;"/><path class="ylines-above crisp" d="M79.5,100V374.5" style="fill: none; stroke-width: 1px; stroke: rgb(255, 255, 255); stroke-opacity: 1;"/><g class="overlines-above"/><g class="xaxislayer-above"><g class="xtick"><text text-anchor="middle" x="0" y="392.3" transform="translate(80,0)" style="font-family: Helvetica; font-size: 14px; fill: rgb(0, 0, 0); fill-opacity: 1; white-space: pre;">0</text></g><g class="xtick"><text text-anchor="middle" x="0" y="392.3" transform="translate(159.41,0)" style="font-family: Helvetica; font-size: 14px; fill: rgb(0, 0, 0); fill-opacity: 1; white-space: pre;">0.1</text></g><g class="xtick"><text text-anchor="middle" x="0" y="392.3" transform="translate(238.82,0)" style="font-family: Helvetica; font-size: 14px; fill: rgb(0, 0, 0); fill-opacity: 1; white-space: pre;">0.2</text></g><g class="xtick"><text text-anchor="middle" x="0" y="392.3" transform="translate(318.24,0)" style="font-family: Helvetica; font-size: 14px; fill: rgb(0, 0, 0); fill-opacity: 1; white-space: pre;">0.3</text></g><g class="xtick"><text text-anchor="middle" x="0" y="392.3" transform="translate(397.65,0)" style="font-family: Helvetica; font-size: 14px; fill: rgb(0, 0, 0); fill-opacity: 1; white-space: pre;">0.4</text></g><g class="xtick"><text text-anchor="middle" x="0" y="392.3" transform="translate(477.06,0)" style="font-family: Helvetica; font-size: 14px; fill: rgb(0, 0, 0); fill-opacity: 1; white-space: pre;">0.5</text></g><g class="xtick"><text text-anchor="middle" x="0" y="392.3" transform="translate(556.47,0)" style="font-family: Helvetica; font-size: 14px; fill: rgb(0, 0, 0); fill-opacity: 1; white-space: pre;">0.6</text></g><g class="xtick"><text text-anchor="middle" x="0" y="392.3" transform="translate(635.88,0)" style="font-family: Helvetica; font-size: 14px; fill: rgb(0, 0, 0); fill-opacity: 1; white-space: pre;">0.7</text></g><g class="xtick"><text text-anchor="middle" x="0" y="392.3" transform="translate(715.29,0)" style="font-family: Helvetica; font-size: 14px; fill: rgb(0, 0, 0); fill-opacity: 1; white-space: pre;">0.8</text></g></g><g class="yaxislayer-above"><g class="ytick"><text text-anchor="end" x="76.2" y="4.8999999999999995" transform="translate(0,374.5)" style="font-family: Helvetica; font-size: 14px; fill: rgb(0, 0, 0); fill-opacity: 1; white-space: pre;">0</text></g><g class="ytick"><text text-anchor="end" x="76.2" y="4.8999999999999995" transform="translate(0,321.5)" style="font-family: Helvetica; font-size: 14px; fill: rgb(0, 0, 0); fill-opacity: 1; white-space: pre;">50</text></g><g class="ytick"><text text-anchor="end" x="76.2" y="4.8999999999999995" transform="translate(0,268.49)" style="font-family: Helvetica; font-size: 14px; fill: rgb(0, 0, 0); fill-opacity: 1; white-space: pre;">100</text></g><g class="ytick"><text text-anchor="end" x="76.2" y="4.8999999999999995" transform="translate(0,215.49)" style="font-family: Helvetica; font-size: 14px; fill: rgb(0, 0, 0); fill-opacity: 1; white-space: pre;">150</text></g><g class="ytick"><text text-anchor="end" x="76.2" y="4.8999999999999995" transform="translate(0,162.49)" style="font-family: Helvetica; font-size: 14px; fill: rgb(0, 0, 0); fill-opacity: 1; white-space: pre;">200</text></g><g class="ytick"><text text-anchor="end" x="76.2" y="4.8999999999999995" transform="translate(0,109.48)" style="font-family: Helvetica; font-size: 14px; fill: rgb(0, 0, 0); fill-opacity: 1; white-space: pre;">250</text></g></g><g class="overaxes-above"/></g><g class="subplot x2y2"><g class="layer-subplot"><g class="shapelayer"/><g class="imagelayer"/></g><g class="gridlayer"><g class="x2"><path class="x2grid crisp" transform="translate(108.74,0)" d="M0,435.4999999999999v549.0000000000001" style="stroke: rgb(255, 255, 255); stroke-opacity: 1; stroke-width: 1px;"/><path class="x2grid crisp" transform="translate(184.05,0)" d="M0,435.4999999999999v549.0000000000001" style="stroke: rgb(255, 255, 255); stroke-opacity: 1; stroke-width: 1px;"/><path class="x2grid crisp" transform="translate(259.36,0)" d="M0,435.4999999999999v549.0000000000001" style="stroke: rgb(255, 255, 255); stroke-opacity: 1; stroke-width: 1px;"/><path class="x2grid crisp" transform="translate(334.71000000000004,0)" d="M0,435.4999999999999v549.0000000000001" style="stroke: rgb(255, 255, 255); stroke-opacity: 1; stroke-width: 1px;"/><path class="x2grid crisp" transform="translate(410.01,0)" d="M0,435.4999999999999v549.0000000000001" style="stroke: rgb(255, 255, 255); stroke-opacity: 1; stroke-width: 1px;"/><path class="x2grid crisp" transform="translate(485.32,0)" d="M0,435.4999999999999v549.0000000000001" style="stroke: rgb(255, 255, 255); stroke-opacity: 1; stroke-width: 1px;"/><path class="x2grid crisp" transform="translate(560.63,0)" d="M0,435.4999999999999v549.0000000000001" style="stroke: rgb(255, 255, 255); stroke-opacity: 1; stroke-width: 1px;"/><path class="x2grid crisp" transform="translate(635.98,0)" d="M0,435.4999999999999v549.0000000000001" style="stroke: rgb(255, 255, 255); stroke-opacity: 1; stroke-width: 1px;"/><path class="x2grid crisp" transform="translate(711.29,0)" d="M0,435.4999999999999v549.0000000000001" style="stroke: rgb(255, 255, 255); stroke-opacity: 1; stroke-width: 1px;"/></g><g class="y2"><path class="y2grid crisp" transform="translate(0,973.9399999999999)" d="M80,0h675" style="stroke: rgb(255, 255, 255); stroke-opacity: 1; stroke-width: 1px;"/><path class="y2grid crisp" transform="translate(0,892.7299999999999)" d="M80,0h675" style="stroke: rgb(255, 255, 255); stroke-opacity: 1; stroke-width: 1px;"/><path class="y2grid crisp" transform="translate(0,811.5199999999999)" d="M80,0h675" style="stroke: rgb(255, 255, 255); stroke-opacity: 1; stroke-width: 1px;"/><path class="y2grid crisp" transform="translate(0,730.31)" d="M80,0h675" style="stroke: rgb(255, 255, 255); stroke-opacity: 1; stroke-width: 1px;"/><path class="y2grid crisp" transform="translate(0,649.0999999999999)" d="M80,0h675" style="stroke: rgb(255, 255, 255); stroke-opacity: 1; stroke-width: 1px;"/><path class="y2grid crisp" transform="translate(0,567.8899999999999)" d="M80,0h675" style="stroke: rgb(255, 255, 255); stroke-opacity: 1; stroke-width: 1px;"/><path class="y2grid crisp" transform="translate(0,486.6799999999999)" d="M80,0h675" style="stroke: rgb(255, 255, 255); stroke-opacity: 1; stroke-width: 1px;"/></g></g><g class="zerolinelayer"/><path class="xlines-below"/><path class="ylines-below"/><g class="overlines-below"/><g class="xaxislayer-below"/><g class="yaxislayer-below"/><g class="overaxes-below"/><g class="plot" transform="translate(80, 435.4999999999999)" clip-path="url('#clip4e3fb1x2y2plot')"><g class="scatterlayer mlayer"><g class="trace scatter tracedae54e" style="stroke-miterlimit: 2; opacity: 1;"><g class="fills"/><g class="errorbars"/><g class="lines"/><g class="points"><path class="point" transform="translate(43.75,426.78)" d="M8,0A8,8 0 1,1 0,-8A8,8 0 0,1 8,0Z" style="opacity: 1; stroke-width: 2px; fill: rgb(173, 216, 230); fill-opacity: 1; stroke: rgb(68, 68, 68); stroke-opacity: 1;"/><path class="point" transform="translate(58.8,479.93)" d="M8,0A8,8 0 1,1 0,-8A8,8 0 0,1 8,0Z" style="opacity: 1; stroke-width: 2px; fill: rgb(173, 216, 230); fill-opacity: 1; stroke: rgb(68, 68, 68); stroke-opacity: 1;"/><path class="point" transform="translate(73.9,459.68)" d="M8,0A8,8 0 1,1 0,-8A8,8 0 0,1 8,0Z" style="opacity: 1; stroke-width: 2px; fill: rgb(173, 216, 230); fill-opacity: 1; stroke: rgb(68, 68, 68); stroke-opacity: 1;"/><path class="point" transform="translate(88.95,473.24)" d="M8,0A8,8 0 1,1 0,-8A8,8 0 0,1 8,0Z" style="opacity: 1; stroke-width: 2px; fill: rgb(173, 216, 230); fill-opacity: 1; stroke: rgb(68, 68, 68); stroke-opacity: 1;"/><path class="point" transform="translate(104.01,330.33)" d="M8,0A8,8 0 1,1 0,-8A8,8 0 0,1 8,0Z" style="opacity: 1; stroke-width: 2px; fill: rgb(173, 216, 230); fill-opacity: 1; stroke: rgb(68, 68, 68); stroke-opacity: 1;"/><path class="point" transform="translate(119.06,315.38)" d="M8,0A8,8 0 1,1 0,-8A8,8 0 0,1 8,0Z" style="opacity: 1; stroke-width: 2px; fill: rgb(173, 216, 230); fill-opacity: 1; stroke: rgb(68, 68, 68); stroke-opacity: 1;"/><path class="point" transform="translate(134.15,421.69)" d="M8,0A8,8 0 1,1 0,-8A8,8 0 0,1 8,0Z" style="opacity: 1; stroke-width: 2px; fill: rgb(173, 216, 230); fill-opacity: 1; stroke: rgb(68, 68, 68); stroke-opacity: 1;"/><path class="point" transform="translate(149.21,446.79)" d="M8,0A8,8 0 1,1 0,-8A8,8 0 0,1 8,0Z" style="opacity: 1; stroke-width: 2px; fill: rgb(173, 216, 230); fill-opacity: 1; stroke: rgb(68, 68, 68); stroke-opacity: 1;"/><path class="point" transform="translate(164.26,438.85)" d="M8,0A8,8 0 1,1 0,-8A8,8 0 0,1 8,0Z" style="opacity: 1; stroke-width: 2px; fill: rgb(173, 216, 230); fill-opacity: 1; stroke: rgb(68, 68, 68); stroke-opacity: 1;"/><path class="point" transform="translate(179.31,399.42)" d="M8,0A8,8 0 1,1 0,-8A8,8 0 0,1 8,0Z" style="opacity: 1; stroke-width: 2px; fill: rgb(173, 216, 230); fill-opacity: 1; stroke: rgb(68, 68, 68); stroke-opacity: 1;"/><path class="point" transform="translate(194.41,389.75)" d="M8,0A8,8 0 1,1 0,-8A8,8 0 0,1 8,0Z" style="opacity: 1; stroke-width: 2px; fill: rgb(173, 216, 230); fill-opacity: 1; stroke: rgb(68, 68, 68); stroke-opacity: 1;"/><path class="point" transform="translate(209.46,511.55)" d="M8,0A8,8 0 1,1 0,-8A8,8 0 0,1 8,0Z" style="opacity: 1; stroke-width: 2px; fill: rgb(173, 216, 230); fill-opacity: 1; stroke: rgb(68, 68, 68); stroke-opacity: 1;"/><path class="point" transform="translate(224.52,506.47)" d="M8,0A8,8 0 1,1 0,-8A8,8 0 0,1 8,0Z" style="opacity: 1; stroke-width: 2px; fill: rgb(173, 216, 230); fill-opacity: 1; stroke: rgb(68, 68, 68); stroke-opacity: 1;"/><path class="point" transform="translate(239.57,465.88)" d="M8,0A8,8 0 1,1 0,-8A8,8 0 0,1 8,0Z" style="opacity: 1; stroke-width: 2px; fill: rgb(173, 216, 230); fill-opacity: 1; stroke: rgb(68, 68, 68); stroke-opacity: 1;"/><path class="point" transform="translate(254.66,485.21)" d="M8,0A8,8 0 1,1 0,-8A8,8 0 0,1 8,0Z" style="opacity: 1; stroke-width: 2px; fill: rgb(173, 216, 230); fill-opacity: 1; stroke: rgb(68, 68, 68); stroke-opacity: 1;"/><path class="point" transform="translate(269.72,493.64)" d="M8,0A8,8 0 1,1 0,-8A8,8 0 0,1 8,0Z" style="opacity: 1; stroke-width: 2px; fill: rgb(173, 216, 230); fill-opacity: 1; stroke: rgb(68, 68, 68); stroke-opacity: 1;"/><path class="point" transform="translate(284.77,471.03)" d="M8,0A8,8 0 1,1 0,-8A8,8 0 0,1 8,0Z" style="opacity: 1; stroke-width: 2px; fill: rgb(173, 216, 230); fill-opacity: 1; stroke: rgb(68, 68, 68); stroke-opacity: 1;"/><path class="point" transform="translate(299.82,487.45)" d="M8,0A8,8 0 1,1 0,-8A8,8 0 0,1 8,0Z" style="opacity: 1; stroke-width: 2px; fill: rgb(173, 216, 230); fill-opacity: 1; stroke: rgb(68, 68, 68); stroke-opacity: 1;"/><path class="point" transform="translate(314.92,382.89)" d="M8,0A8,8 0 1,1 0,-8A8,8 0 0,1 8,0Z" style="opacity: 1; stroke-width: 2px; fill: rgb(173, 216, 230); fill-opacity: 1; stroke: rgb(68, 68, 68); stroke-opacity: 1;"/><path class="point" transform="translate(329.97,380.85)" d="M8,0A8,8 0 1,1 0,-8A8,8 0 0,1 8,0Z" style="opacity: 1; stroke-width: 2px; fill: rgb(173, 216, 230); fill-opacity: 1; stroke: rgb(68, 68, 68); stroke-opacity: 1;"/><path class="point" transform="translate(345.03,348.76)" d="M8,0A8,8 0 1,1 0,-8A8,8 0 0,1 8,0Z" style="opacity: 1; stroke-width: 2px; fill: rgb(173, 216, 230); fill-opacity: 1; stroke: rgb(68, 68, 68); stroke-opacity: 1;"/><path class="point" transform="translate(360.08,385.11)" d="M8,0A8,8 0 1,1 0,-8A8,8 0 0,1 8,0Z" style="opacity: 1; stroke-width: 2px; fill: rgb(173, 216, 230); fill-opacity: 1; stroke: rgb(68, 68, 68); stroke-opacity: 1;"/><path class="point" transform="translate(375.18,296.07)" d="M8,0A8,8 0 1,1 0,-8A8,8 0 0,1 8,0Z" style="opacity: 1; stroke-width: 2px; fill: rgb(173, 216, 230); fill-opacity: 1; stroke: rgb(68, 68, 68); stroke-opacity: 1;"/><path class="point" transform="translate(390.23,301.9)" d="M8,0A8,8 0 1,1 0,-8A8,8 0 0,1 8,0Z" style="opacity: 1; stroke-width: 2px; fill: rgb(173, 216, 230); fill-opacity: 1; stroke: rgb(68, 68, 68); stroke-opacity: 1;"/><path class="point" transform="translate(405.28,263.28)" d="M8,0A8,8 0 1,1 0,-8A8,8 0 0,1 8,0Z" style="opacity: 1; stroke-width: 2px; fill: rgb(173, 216, 230); fill-opacity: 1; stroke: rgb(68, 68, 68); stroke-opacity: 1;"/><path class="point" transform="translate(420.34,276.24)" d="M8,0A8,8 0 1,1 0,-8A8,8 0 0,1 8,0Z" style="opacity: 1; stroke-width: 2px; fill: rgb(173, 216, 230); fill-opacity: 1; stroke: rgb(68, 68, 68); stroke-opacity: 1;"/><path class="point" transform="translate(435.43,320.14)" d="M8,0A8,8 0 1,1 0,-8A8,8 0 0,1 8,0Z" style="opacity: 1; stroke-width: 2px; fill: rgb(173, 216, 230); fill-opacity: 1; stroke: rgb(68, 68, 68); stroke-opacity: 1;"/><path class="point" transform="translate(450.48,217.4)" d="M8,0A8,8 0 1,1 0,-8A8,8 0 0,1 8,0Z" style="opacity: 1; stroke-width: 2px; fill: rgb(173, 216, 230); fill-opacity: 1; stroke: rgb(68, 68, 68); stroke-opacity: 1;"/><path class="point" transform="translate(465.54,265.81)" d="M8,0A8,8 0 1,1 0,-8A8,8 0 0,1 8,0Z" style="opacity: 1; stroke-width: 2px; fill: rgb(173, 216, 230); fill-opacity: 1; stroke: rgb(68, 68, 68); stroke-opacity: 1;"/><path class="point" transform="translate(480.59,331.57)" d="M8,0A8,8 0 1,1 0,-8A8,8 0 0,1 8,0Z" style="opacity: 1; stroke-width: 2px; fill: rgb(173, 216, 230); fill-opacity: 1; stroke: rgb(68, 68, 68); stroke-opacity: 1;"/><path class="point" transform="translate(495.69,409.01)" d="M8,0A8,8 0 1,1 0,-8A8,8 0 0,1 8,0Z" style="opacity: 1; stroke-width: 2px; fill: rgb(173, 216, 230); fill-opacity: 1; stroke: rgb(68, 68, 68); stroke-opacity: 1;"/><path class="point" transform="translate(510.74,333.56)" d="M8,0A8,8 0 1,1 0,-8A8,8 0 0,1 8,0Z" style="opacity: 1; stroke-width: 2px; fill: rgb(173, 216, 230); fill-opacity: 1; stroke: rgb(68, 68, 68); stroke-opacity: 1;"/><path class="point" transform="translate(525.79,324.84)" d="M8,0A8,8 0 1,1 0,-8A8,8 0 0,1 8,0Z" style="opacity: 1; stroke-width: 2px; fill: rgb(173, 216, 230); fill-opacity: 1; stroke: rgb(68, 68, 68); stroke-opacity: 1;"/><path class="point" transform="translate(540.85,250.23)" d="M8,0A8,8 0 1,1 0,-8A8,8 0 0,1 8,0Z" style="opacity: 1; stroke-width: 2px; fill: rgb(173, 216, 230); fill-opacity: 1; stroke: rgb(68, 68, 68); stroke-opacity: 1;"/><path class="point" transform="translate(555.94,406.91)" d="M8,0A8,8 0 1,1 0,-8A8,8 0 0,1 8,0Z" style="opacity: 1; stroke-width: 2px; fill: rgb(173, 216, 230); fill-opacity: 1; stroke: rgb(68, 68, 68); stroke-opacity: 1;"/><path class="point" transform="translate(570.99,365.38)" d="M8,0A8,8 0 1,1 0,-8A8,8 0 0,1 8,0Z" style="opacity: 1; stroke-width: 2px; fill: rgb(173, 216, 230); fill-opacity: 1; stroke: rgb(68, 68, 68); stroke-opacity: 1;"/><path class="point" transform="translate(586.05,236.5)" d="M8,0A8,8 0 1,1 0,-8A8,8 0 0,1 8,0Z" style="opacity: 1; stroke-width: 2px; fill: rgb(173, 216, 230); fill-opacity: 1; stroke: rgb(68, 68, 68); stroke-opacity: 1;"/><path class="point" transform="translate(601.1,248.05)" d="M8,0A8,8 0 1,1 0,-8A8,8 0 0,1 8,0Z" style="opacity: 1; stroke-width: 2px; fill: rgb(173, 216, 230); fill-opacity: 1; stroke: rgb(68, 68, 68); stroke-opacity: 1;"/><path class="point" transform="translate(616.2,445.66)" d="M8,0A8,8 0 1,1 0,-8A8,8 0 0,1 8,0Z" style="opacity: 1; stroke-width: 2px; fill: rgb(173, 216, 230); fill-opacity: 1; stroke: rgb(68, 68, 68); stroke-opacity: 1;"/><path class="point" transform="translate(631.25,37.45)" d="M8,0A8,8 0 1,1 0,-8A8,8 0 0,1 8,0Z" style="opacity: 1; stroke-width: 2px; fill: rgb(173, 216, 230); fill-opacity: 1; stroke: rgb(68, 68, 68); stroke-opacity: 1;"/></g><g class="text"/></g><g class="trace scatter trace844d48" style="stroke-miterlimit: 2; opacity: 1;"><g class="fills"/><g class="errorbars"/><g class="lines"><path class="js-line" d="M88.95,476.95L104.01,433.99L119.06,411.71L134.15,400.06L149.21,397.48L164.26,390.61L179.31,404.42L194.41,419.3L209.46,437.27L224.52,449.21L239.57,454.61L254.66,471.77L269.72,492.55L284.77,484.45L299.82,480.64L314.92,464.04L329.97,443.17L345.03,414.2L360.08,397.01L375.18,358.74L390.23,342.54L405.28,319.02L420.34,304.52L435.43,291.52L450.48,275.79L465.54,268.57L480.59,282.23L495.69,308.78L510.74,311.47L525.79,332.96L540.85,329.84L555.94,344.91L570.99,336.19L586.05,316.77L601.1,301.41L616.2,340.5L631.25,266.61" style="vector-effect: non-scaling-stroke; fill: none; stroke: rgb(25, 25, 112); stroke-opacity: 1; stroke-width: 4px; opacity: 1;"/></g><g class="points"/><g class="text"/></g></g></g><g class="overplot"/><path class="xlines-above crisp" d="M79,985H755" style="fill: none; stroke-width: 1px; stroke: rgb(255, 255, 255); stroke-opacity: 1;"/><path class="ylines-above crisp" d="M79.5,435.4999999999999V984.5" style="fill: none; stroke-width: 1px; stroke: rgb(255, 255, 255); stroke-opacity: 1;"/><g class="overlines-above"/><g class="xaxislayer-above"><g class="x2tick"><text text-anchor="middle" x="0" y="1002.3" transform="translate(108.74,0)" style="font-family: Helvetica; font-size: 14px; fill: rgb(0, 0, 0); fill-opacity: 1; white-space: pre;">1930</text></g><g class="x2tick"><text text-anchor="middle" x="0" y="1002.3" transform="translate(184.05,0)" style="font-family: Helvetica; font-size: 14px; fill: rgb(0, 0, 0); fill-opacity: 1; white-space: pre;">1935</text></g><g class="x2tick"><text text-anchor="middle" x="0" y="1002.3" transform="translate(259.36,0)" style="font-family: Helvetica; font-size: 14px; fill: rgb(0, 0, 0); fill-opacity: 1; white-space: pre;">1940</text></g><g class="x2tick"><text text-anchor="middle" x="0" y="1002.3" transform="translate(334.71000000000004,0)" style="font-family: Helvetica; font-size: 14px; fill: rgb(0, 0, 0); fill-opacity: 1; white-space: pre;">1945</text></g><g class="x2tick"><text text-anchor="middle" x="0" y="1002.3" transform="translate(410.01,0)" style="font-family: Helvetica; font-size: 14px; fill: rgb(0, 0, 0); fill-opacity: 1; white-space: pre;">1950</text></g><g class="x2tick"><text text-anchor="middle" x="0" y="1002.3" transform="translate(485.32,0)" style="font-family: Helvetica; font-size: 14px; fill: rgb(0, 0, 0); fill-opacity: 1; white-space: pre;">1955</text></g><g class="x2tick"><text text-anchor="middle" x="0" y="1002.3" transform="translate(560.63,0)" style="font-family: Helvetica; font-size: 14px; fill: rgb(0, 0, 0); fill-opacity: 1; white-space: pre;">1960</text></g><g class="x2tick"><text text-anchor="middle" x="0" y="1002.3" transform="translate(635.98,0)" style="font-family: Helvetica; font-size: 14px; fill: rgb(0, 0, 0); fill-opacity: 1; white-space: pre;">1965</text></g><g class="x2tick"><text text-anchor="middle" x="0" y="1002.3" transform="translate(711.29,0)" style="font-family: Helvetica; font-size: 14px; fill: rgb(0, 0, 0); fill-opacity: 1; white-space: pre;">1970</text></g></g><g class="yaxislayer-above"><g class="y2tick"><text text-anchor="end" x="76.2" y="4.8999999999999995" transform="translate(0,973.9399999999999)" style="font-family: Helvetica; font-size: 14px; fill: rgb(0, 0, 0); fill-opacity: 1; white-space: pre;">0.1</text></g><g class="y2tick"><text text-anchor="end" x="76.2" y="4.8999999999999995" transform="translate(0,892.7299999999999)" style="font-family: Helvetica; font-size: 14px; fill: rgb(0, 0, 0); fill-opacity: 1; white-space: pre;">0.15</text></g><g class="y2tick"><text text-anchor="end" x="76.2" y="4.8999999999999995" transform="translate(0,811.5199999999999)" style="font-family: Helvetica; font-size: 14px; fill: rgb(0, 0, 0); fill-opacity: 1; white-space: pre;">0.2</text></g><g class="y2tick"><text text-anchor="end" x="76.2" y="4.8999999999999995" transform="translate(0,730.31)" style="font-family: Helvetica; font-size: 14px; fill: rgb(0, 0, 0); fill-opacity: 1; white-space: pre;">0.25</text></g><g class="y2tick"><text text-anchor="end" x="76.2" y="4.8999999999999995" transform="translate(0,649.0999999999999)" style="font-family: Helvetica; font-size: 14px; fill: rgb(0, 0, 0); fill-opacity: 1; white-space: pre;">0.3</text></g><g class="y2tick"><text text-anchor="end" x="76.2" y="4.8999999999999995" transform="translate(0,567.8899999999999)" style="font-family: Helvetica; font-size: 14px; fill: rgb(0, 0, 0); fill-opacity: 1; white-space: pre;">0.35</text></g><g class="y2tick"><text text-anchor="end" x="76.2" y="4.8999999999999995" transform="translate(0,486.6799999999999)" style="font-family: Helvetica; font-size: 14px; fill: rgb(0, 0, 0); fill-opacity: 1; white-space: pre;">0.4</text></g></g><g class="overaxes-above"/></g><g class="subplot x3y3"><g class="layer-subplot"><g class="shapelayer"/><g class="imagelayer"/></g><g class="gridlayer"><g class="x3"><path class="x3grid crisp" transform="translate(88.44,0)" d="M0,1045.5v274.5" style="stroke: rgb(255, 255, 255); stroke-opacity: 1; stroke-width: 1px;"/><path class="x3grid crisp" transform="translate(172.81,0)" d="M0,1045.5v274.5" style="stroke: rgb(255, 255, 255); stroke-opacity: 1; stroke-width: 1px;"/><path class="x3grid crisp" transform="translate(257.19,0)" d="M0,1045.5v274.5" style="stroke: rgb(255, 255, 255); stroke-opacity: 1; stroke-width: 1px;"/><path class="x3grid crisp" transform="translate(341.56,0)" d="M0,1045.5v274.5" style="stroke: rgb(255, 255, 255); stroke-opacity: 1; stroke-width: 1px;"/><path class="x3grid crisp" transform="translate(425.94,0)" d="M0,1045.5v274.5" style="stroke: rgb(255, 255, 255); stroke-opacity: 1; stroke-width: 1px;"/><path class="x3grid crisp" transform="translate(510.31,0)" d="M0,1045.5v274.5" style="stroke: rgb(255, 255, 255); stroke-opacity: 1; stroke-width: 1px;"/><path class="x3grid crisp" transform="translate(594.69,0)" d="M0,1045.5v274.5" style="stroke: rgb(255, 255, 255); stroke-opacity: 1; stroke-width: 1px;"/><path class="x3grid crisp" transform="translate(679.06,0)" d="M0,1045.5v274.5" style="stroke: rgb(255, 255, 255); stroke-opacity: 1; stroke-width: 1px;"/></g><g class="y3"><path class="y3grid crisp" transform="translate(0,1268.87)" d="M80,0h675" style="stroke: rgb(255, 255, 255); stroke-opacity: 1; stroke-width: 1px;"/><path class="y3grid crisp" transform="translate(0,1217.74)" d="M80,0h675" style="stroke: rgb(255, 255, 255); stroke-opacity: 1; stroke-width: 1px;"/><path class="y3grid crisp" transform="translate(0,1166.6)" d="M80,0h675" style="stroke: rgb(255, 255, 255); stroke-opacity: 1; stroke-width: 1px;"/><path class="y3grid crisp" transform="translate(0,1115.47)" d="M80,0h675" style="stroke: rgb(255, 255, 255); stroke-opacity: 1; stroke-width: 1px;"/><path class="y3grid crisp" transform="translate(0,1064.34)" d="M80,0h675" style="stroke: rgb(255, 255, 255); stroke-opacity: 1; stroke-width: 1px;"/></g></g><g class="zerolinelayer"><path class="y3zl zl crisp" transform="translate(0,1320)" d="M80,0h675" style="stroke: rgb(255, 255, 255); stroke-opacity: 1; stroke-width: 2px;"/></g><path class="xlines-below"/><path class="ylines-below"/><g class="overlines-below"/><g class="xaxislayer-below"/><g class="yaxislayer-below"/><g class="overaxes-below"/><g class="plot" transform="translate(80, 1045.5)" clip-path="url('#clip4e3fb1x3y3plot')"><g class="barlayer mlayer"><g class="trace bars" shape-rendering="crispEdges" style="opacity: 1;"><g class="points"><g class="point"><path d="M0,274.5V210.58H33.75V274.5Z" style="vector-effect: non-scaling-stroke; opacity: 1; stroke-width: 0px; fill: rgb(171, 99, 250); fill-opacity: 1;"/></g><g class="point"><path d="M33.75,274.5V162.01H67.5V274.5Z" style="vector-effect: non-scaling-stroke; opacity: 1; stroke-width: 0px; fill: rgb(171, 99, 250); fill-opacity: 1;"/></g><g class="point"><path d="M67.5,274.5V159.45H101.25V274.5Z" style="vector-effect: non-scaling-stroke; opacity: 1; stroke-width: 0px; fill: rgb(171, 99, 250); fill-opacity: 1;"/></g><g class="point"><path d="M101.25,274.5V131.33H135V274.5Z" style="vector-effect: non-scaling-stroke; opacity: 1; stroke-width: 0px; fill: rgb(171, 99, 250); fill-opacity: 1;"/></g><g class="point"><path d="M135,274.5V131.33H168.75V274.5Z" style="vector-effect: non-scaling-stroke; opacity: 1; stroke-width: 0px; fill: rgb(171, 99, 250); fill-opacity: 1;"/></g><g class="point"><path d="M168.75,274.5V98.09H202.5V274.5Z" style="vector-effect: non-scaling-stroke; opacity: 1; stroke-width: 0px; fill: rgb(171, 99, 250); fill-opacity: 1;"/></g><g class="point"><path d="M202.5,274.5V105.76H236.25V274.5Z" style="vector-effect: non-scaling-stroke; opacity: 1; stroke-width: 0px; fill: rgb(171, 99, 250); fill-opacity: 1;"/></g><g class="point"><path d="M236.25,274.5V113.43H270V274.5Z" style="vector-effect: non-scaling-stroke; opacity: 1; stroke-width: 0px; fill: rgb(171, 99, 250); fill-opacity: 1;"/></g><g class="point"><path d="M270,274.5V85.31H303.75V274.5Z" style="vector-effect: non-scaling-stroke; opacity: 1; stroke-width: 0px; fill: rgb(171, 99, 250); fill-opacity: 1;"/></g><g class="point"><path d="M303.75,274.5V52.07H337.5V274.5Z" style="vector-effect: non-scaling-stroke; opacity: 1; stroke-width: 0px; fill: rgb(171, 99, 250); fill-opacity: 1;"/></g><g class="point"><path d="M337.5,274.5V52.07H371.25V274.5Z" style="vector-effect: non-scaling-stroke; opacity: 1; stroke-width: 0px; fill: rgb(171, 99, 250); fill-opacity: 1;"/></g><g class="point"><path d="M371.25,274.5V21.39H405V274.5Z" style="vector-effect: non-scaling-stroke; opacity: 1; stroke-width: 0px; fill: rgb(171, 99, 250); fill-opacity: 1;"/></g><g class="point"><path d="M405,274.5V13.73H438.75V274.5Z" style="vector-effect: non-scaling-stroke; opacity: 1; stroke-width: 0px; fill: rgb(171, 99, 250); fill-opacity: 1;"/></g><g class="point"><path d="M438.75,274.5V26.51H472.5V274.5Z" style="vector-effect: non-scaling-stroke; opacity: 1; stroke-width: 0px; fill: rgb(171, 99, 250); fill-opacity: 1;"/></g><g class="point"><path d="M472.5,274.5V126.22H506.25V274.5Z" style="vector-effect: non-scaling-stroke; opacity: 1; stroke-width: 0px; fill: rgb(171, 99, 250); fill-opacity: 1;"/></g><g class="point"><path d="M506.25,274.5V177.35H540V274.5Z" style="vector-effect: non-scaling-stroke; opacity: 1; stroke-width: 0px; fill: rgb(171, 99, 250); fill-opacity: 1;"/></g><g class="point"><path d="M540,274.5V210.58H573.75V274.5Z" style="vector-effect: non-scaling-stroke; opacity: 1; stroke-width: 0px; fill: rgb(171, 99, 250); fill-opacity: 1;"/></g><g class="point"><path d="M573.75,274.5V233.59H607.5V274.5Z" style="vector-effect: non-scaling-stroke; opacity: 1; stroke-width: 0px; fill: rgb(171, 99, 250); fill-opacity: 1;"/></g><g class="point"><path d="M607.5,274.5V261.72H641.25V274.5Z" style="vector-effect: non-scaling-stroke; opacity: 1; stroke-width: 0px; fill: rgb(171, 99, 250); fill-opacity: 1;"/></g><g class="point"><path d="M641.25,274.5V264.27H675V274.5Z" style="vector-effect: non-scaling-stroke; opacity: 1; stroke-width: 0px; fill: rgb(171, 99, 250); fill-opacity: 1;"/></g></g></g></g></g><g class="overplot"/><path class="xlines-above crisp" d="M79,1320.5H755" style="fill: none; stroke-width: 1px; stroke: rgb(255, 255, 255); stroke-opacity: 1;"/><path class="ylines-above crisp" d="M79.5,1045.5V1320" style="fill: none; stroke-width: 1px; stroke: rgb(255, 255, 255); stroke-opacity: 1;"/><g class="overlines-above"/><g class="xaxislayer-above"><g class="x3tick"><text text-anchor="middle" x="0" y="1337.8" transform="translate(88.44,0)" style="font-family: Helvetica; font-size: 14px; fill: rgb(0, 0, 0); fill-opacity: 1; white-space: pre;">1930</text></g><g class="x3tick"><text text-anchor="middle" x="0" y="1337.8" transform="translate(172.81,0)" style="font-family: Helvetica; font-size: 14px; fill: rgb(0, 0, 0); fill-opacity: 1; white-space: pre;">1935</text></g><g class="x3tick"><text text-anchor="middle" x="0" y="1337.8" transform="translate(257.19,0)" style="font-family: Helvetica; font-size: 14px; fill: rgb(0, 0, 0); fill-opacity: 1; white-space: pre;">1940</text></g><g class="x3tick"><text text-anchor="middle" x="0" y="1337.8" transform="translate(341.56,0)" style="font-family: Helvetica; font-size: 14px; fill: rgb(0, 0, 0); fill-opacity: 1; white-space: pre;">1945</text></g><g class="x3tick"><text text-anchor="middle" x="0" y="1337.8" transform="translate(425.94,0)" style="font-family: Helvetica; font-size: 14px; fill: rgb(0, 0, 0); fill-opacity: 1; white-space: pre;">1950</text></g><g class="x3tick"><text text-anchor="middle" x="0" y="1337.8" transform="translate(510.31,0)" style="font-family: Helvetica; font-size: 14px; fill: rgb(0, 0, 0); fill-opacity: 1; white-space: pre;">1955</text></g><g class="x3tick"><text text-anchor="middle" x="0" y="1337.8" transform="translate(594.69,0)" style="font-family: Helvetica; font-size: 14px; fill: rgb(0, 0, 0); fill-opacity: 1; white-space: pre;">1960</text></g><g class="x3tick"><text text-anchor="middle" x="0" y="1337.8" transform="translate(679.06,0)" style="font-family: Helvetica; font-size: 14px; fill: rgb(0, 0, 0); fill-opacity: 1; white-space: pre;">1965</text></g></g><g class="yaxislayer-above"><g class="y3tick"><text text-anchor="end" x="76.2" y="4.8999999999999995" transform="translate(0,1320)" style="font-family: Helvetica; font-size: 14px; fill: rgb(0, 0, 0); fill-opacity: 1; white-space: pre;">0</text></g><g class="y3tick"><text text-anchor="end" x="76.2" y="4.8999999999999995" transform="translate(0,1268.87)" style="font-family: Helvetica; font-size: 14px; fill: rgb(0, 0, 0); fill-opacity: 1; white-space: pre;">20</text></g><g class="y3tick"><text text-anchor="end" x="76.2" y="4.8999999999999995" transform="translate(0,1217.74)" style="font-family: Helvetica; font-size: 14px; fill: rgb(0, 0, 0); fill-opacity: 1; white-space: pre;">40</text></g><g class="y3tick"><text text-anchor="end" x="76.2" y="4.8999999999999995" transform="translate(0,1166.6)" style="font-family: Helvetica; font-size: 14px; fill: rgb(0, 0, 0); fill-opacity: 1; white-space: pre;">60</text></g><g class="y3tick"><text text-anchor="end" x="76.2" y="4.8999999999999995" transform="translate(0,1115.47)" style="font-family: Helvetica; font-size: 14px; fill: rgb(0, 0, 0); fill-opacity: 1; white-space: pre;">80</text></g><g class="y3tick"><text text-anchor="end" x="76.2" y="4.8999999999999995" transform="translate(0,1064.34)" style="font-family: Helvetica; font-size: 14px; fill: rgb(0, 0, 0); fill-opacity: 1; white-space: pre;">100</text></g></g><g class="overaxes-above"/></g></g><g class="polarlayer"/><g class="ternarylayer"/><g class="geolayer"/><g class="funnelarealayer"/><g class="pielayer"/><g class="treemaplayer"/><g class="sunburstlayer"/><g class="glimages"/><defs id="topdefs-4e3fb1"><g class="clips"/><clipPath id="legend4e3fb1"><rect width="220" height="95" x="0" y="0"/></clipPath></defs><g class="layer-above"><g class="imagelayer"/><g class="shapelayer"/></g><g class="infolayer"><g class="legend" pointer-events="all" transform="translate(768.5, 100)"><rect class="bg" shape-rendering="crispEdges" width="220" height="95" x="0" y="0" style="stroke: rgb(68, 68, 68); stroke-opacity: 1; fill: rgb(255, 255, 255); fill-opacity: 1; stroke-width: 0px;"/><g class="scrollbox" transform="translate(0, 0)" clip-path="url('#legend4e3fb1')"><g class="groups"><g class="traces" transform="translate(0, 15.6)" style="opacity: 1;"><text class="legendtext user-select-none" text-anchor="start" x="40" y="5.46" style="font-family: Helvetica; font-size: 14px; fill: rgb(0, 0, 0); fill-opacity: 1; white-space: pre;">Percent Exteriors</text><g class="layers" style="opacity: 1;"><g class="legendfill"/><g class="legendlines"/><g class="legendsymbols"><g class="legendpoints"><path class="scatterpts" transform="translate(20,0)" d="M8,0A8,8 0 1,1 0,-8A8,8 0 0,1 8,0Z" style="opacity: 1; stroke-width: 2px; fill: rgb(173, 216, 230); fill-opacity: 1; stroke: rgb(68, 68, 68); stroke-opacity: 1;"/></g></g></g><rect class="legendtoggle" pointer-events="all" x="0" y="-10.6" width="214.515625" height="21.2" style="cursor: pointer; fill: rgb(0, 0, 0); fill-opacity: 0;"/></g><g class="traces" transform="translate(0, 36.8)" style="opacity: 1;"><text class="legendtext user-select-none" text-anchor="start" x="40" y="5.46" style="font-family: Helvetica; font-size: 14px; fill: rgb(0, 0, 0); fill-opacity: 1; white-space: pre;">5 year moving average</text><g class="layers" style="opacity: 1;"><g class="legendfill"/><g class="legendlines"><path class="js-line" d="M5,0h30" style="fill: none; stroke: rgb(25, 25, 112); stroke-opacity: 1; stroke-width: 4px;"/></g><g class="legendsymbols"><g class="legendpoints"/></g></g><rect class="legendtoggle" pointer-events="all" x="0" y="-10.6" width="214.515625" height="21.2" style="cursor: pointer; fill: rgb(0, 0, 0); fill-opacity: 0;"/></g><g class="traces" transform="translate(0, 58)" style="opacity: 1;"><text class="legendtext user-select-none" text-anchor="start" x="40" y="5.46" style="font-family: Helvetica; font-size: 14px; fill: rgb(0, 0, 0); fill-opacity: 1; white-space: pre;">Percent Exterior Distribution</text><g class="layers" style="opacity: 1;"><g class="legendfill"/><g class="legendlines"/><g class="legendsymbols"><g class="legendpoints"><path class="legendundefined" d="M6,6H-6V-6H6Z" transform="translate(20,0)" style="stroke-width: 0px; fill: rgb(0, 204, 150); fill-opacity: 1;"/></g></g></g><rect class="legendtoggle" pointer-events="all" x="0" y="-10.6" width="214.515625" height="21.2" style="cursor: pointer; fill: rgb(0, 0, 0); fill-opacity: 0;"/></g><g class="traces" transform="translate(0, 79.19999999999999)" style="opacity: 1;"><text class="legendtext user-select-none" text-anchor="start" x="40" y="5.46" style="font-family: Helvetica; font-size: 14px; fill: rgb(0, 0, 0); fill-opacity: 1; white-space: pre;">Year Distribution</text><g class="layers" style="opacity: 1;"><g class="legendfill"/><g class="legendlines"/><g class="legendsymbols"><g class="legendpoints"><path class="legendundefined" d="M6,6H-6V-6H6Z" transform="translate(20,0)" style="stroke-width: 0px; fill: rgb(171, 99, 250); fill-opacity: 1;"/></g></g></g><rect class="legendtoggle" pointer-events="all" x="0" y="-10.6" width="214.515625" height="21.2" style="cursor: pointer; fill: rgb(0, 0, 0); fill-opacity: 0;"/></g></g></g><rect class="scrollbar" rx="20" ry="3" width="0" height="0" x="0" y="0" style="fill: rgb(128, 139, 164); fill-opacity: 1;"/></g><g class="g-gtitle"/><g class="g-xtitle"/><g class="g-x2title"/><g class="g-x3title"/><g class="g-ytitle"><text class="ytitle" transform="rotate(-90,24.928125,237.25)" x="24.928125" y="237.25" text-anchor="middle" style="font-family: Helvetica; font-size: 17px; fill: rgb(0, 0, 0); opacity: 1; font-weight: normal; white-space: pre;">Number of Films</text></g><g class="g-y2title"><text class="y2title" transform="rotate(-90,21.0375,710)" x="21.0375" y="710" text-anchor="middle" style="font-family: Helvetica; font-size: 17px; fill: rgb(0, 0, 0); opacity: 1; font-weight: normal; white-space: pre;">Percent Exterior</text></g><g class="g-y3title"><text class="y3title" transform="rotate(-90,25.928125,1182.75)" x="25.928125" y="1182.75" text-anchor="middle" style="font-family: Helvetica; font-size: 17px; fill: rgb(0, 0, 0); opacity: 1; font-weight: normal; white-space: pre;">Number of Films</text></g><g class="annotation" data-index="0" style="opacity: 1;"><g class="annotation-text-g" transform="rotate(0,417.5,89.5)"><g class="cursor-pointer" transform="translate(346, 79)"><rect class="bg" x="0.5" y="0.5" width="143" height="20" style="stroke-width: 1px; stroke: rgb(0, 0, 0); stroke-opacity: 0; fill: rgb(0, 0, 0); fill-opacity: 0;"/><text class="annotation-text" text-anchor="middle" x="71.8125" y="16" style="font-family: Helvetica; font-size: 16px; fill: rgb(0, 0, 0); fill-opacity: 1; white-space: pre;">Exterior Distribution</text></g></g></g><g class="annotation" data-index="1" style="opacity: 1;"><g class="annotation-text-g" transform="rotate(0,417.5,424.9999999999999)"><g class="cursor-pointer" transform="translate(311, 414)"><rect class="bg" x="0.5" y="0.5" width="212" height="20" style="stroke-width: 1px; stroke: rgb(0, 0, 0); stroke-opacity: 0; fill: rgb(0, 0, 0); fill-opacity: 0;"/><text class="annotation-text" text-anchor="middle" x="106.0625" y="16" style="font-family: Helvetica; font-size: 16px; fill: rgb(0, 0, 0); fill-opacity: 1; white-space: pre;">Percent Exteriors, 1927-1969</text></g></g></g><g class="annotation" data-index="2" style="opacity: 1;"><g class="annotation-text-g" transform="rotate(0,417.5,1035)"><g class="cursor-pointer" transform="translate(316, 1025)"><rect class="bg" x="0.5" y="0.5" width="203" height="20" style="stroke-width: 1px; stroke: rgb(0, 0, 0); stroke-opacity: 0; fill: rgb(0, 0, 0); fill-opacity: 0;"/><text class="annotation-text" text-anchor="middle" x="101.296875" y="16" style="font-family: Helvetica; font-size: 16px; fill: rgb(0, 0, 0); fill-opacity: 1; white-space: pre;">Distribution of Films by Year</text></g></g></g></g></svg>